HIERARCHY
ROOT hip
{
  OFFSET 0 0 0
  CHANNELS 6 Xposition Yposition Zposition Zrotation Yrotation Xrotation
  JOINT abdomen
  {
    OFFSET 0 20.6881 -0.73152
    CHANNELS 3 Zrotation Xrotation Yrotation
    JOINT chest
    {
      OFFSET 0 11.7043 -0.48768
      CHANNELS 3 Zrotation Xrotation Yrotation
      JOINT neck
      {
        OFFSET 0 22.1894 -2.19456
        CHANNELS 3 Zrotation Xrotation Yrotation
        JOINT head
        {
          OFFSET -0.24384 7.07133 1.2192
          CHANNELS 3 Zrotation Xrotation Yrotation
          JOINT leftEye
          {
            OFFSET 4.14528 8.04674 8.04672
            CHANNELS 3 Zrotation Xrotation Yrotation
            End Site
            {
              OFFSET 1 0 0
            }
          }
          JOINT rightEye
          {
            OFFSET -3.6576 8.04674 8.04672
            CHANNELS 3 Zrotation Xrotation Yrotation
            End Site
            {
              OFFSET 1 0 0
            }
          }
        }
      }
      JOINT rCollar
      {
        OFFSET -2.68224 19.2634 -4.8768
        CHANNELS 3 Zrotation Xrotation Yrotation
        JOINT rShldr
        {
          OFFSET -8.77824 -1.95073 1.46304
          CHANNELS 3 Zrotation Xrotation Yrotation
          JOINT rForeArm
          {
            OFFSET -28.1742 -1.7115 0.48768
            CHANNELS 3 Zrotation Xrotation Yrotation
            JOINT rHand
            {
              OFFSET -22.5879 0.773209 7.07136
              CHANNELS 3 Zrotation Xrotation Yrotation
              JOINT rThumb1
              {
                OFFSET -1.2192 -0.487915 3.41376
                CHANNELS 3 Zrotation Xrotation Yrotation
                JOINT rThumb2
                {
                  OFFSET -3.37035 -0.52449 3.41376
                  CHANNELS 3 Zrotation Xrotation Yrotation
                  End Site
                  {
                    OFFSET -1.78271 -1.18214 1.43049
                  }
                }
              }
              JOINT rIndex1
              {
                OFFSET -7.75947 0.938293 5.60832
                CHANNELS 3 Zrotation Xrotation Yrotation
                JOINT rIndex2
                {
                  OFFSET -2.54057 -0.884171 1.56538
                  CHANNELS 3 Zrotation Xrotation Yrotation
                  End Site
                  {
                    OFFSET -1.62519 -0.234802 1.16502
                  }
                }
              }
              JOINT rMid1
              {
                OFFSET -8.24714 1.18213 3.41376
                CHANNELS 3 Zrotation Xrotation Yrotation
                JOINT rMid2
                {
                  OFFSET -3.10165 -0.590103 1.0647
                  CHANNELS 3 Zrotation Xrotation Yrotation
                  End Site
                  {
                    OFFSET -2.48547 -0.328903 0.83742
                  }
                }
              }
              JOINT rRing1
              {
                OFFSET -8.82822 0.546677 1.51678
                CHANNELS 3 Zrotation Xrotation Yrotation
                JOINT rRing2
                {
                  OFFSET -2.60934 -0.819778 -0.0198488
                  CHANNELS 3 Zrotation Xrotation Yrotation
                  End Site
                  {
                    OFFSET -2.33842 -0.294052 0.168128
                  }
                }
              }
              JOINT rPinky1
              {
                OFFSET -8.27202 -0.0477905 -0.4584
                CHANNELS 3 Zrotation Xrotation Yrotation
                JOINT rPinky2
                {
                  OFFSET -1.82734 -0.647385 -0.700984
                  CHANNELS 3 Zrotation Xrotation Yrotation
                  End Site
                  {
                    OFFSET -1.69225 -0.51767 -0.607171
                  }
                }
              }
            }
          }
        }
      }
      JOINT lCollar
      {
        OFFSET 2.68224 19.2634 -4.8768
        CHANNELS 3 Zrotation Xrotation Yrotation
        JOINT lShldr
        {
          OFFSET 8.77824 -1.95073 1.46304
          CHANNELS 3 Zrotation Xrotation Yrotation
          JOINT lForeArm
          {
            OFFSET 28.1742 -1.7115 0.48768
            CHANNELS 3 Zrotation Xrotation Yrotation
            JOINT lHand
            {
              OFFSET 22.5879 0.773209 7.07136
              CHANNELS 3 Zrotation Xrotation Yrotation
              JOINT lThumb1
              {
                OFFSET 1.2192 -0.487915 3.41376
                CHANNELS 3 Zrotation Xrotation Yrotation
                JOINT lThumb2
                {
                  OFFSET 3.37035 -0.52449 3.41376
                  CHANNELS 3 Zrotation Xrotation Yrotation
                  End Site
                  {
                    OFFSET 1.78271 -1.18214 1.43049
                  }
                }
              }
              JOINT lIndex1
              {
                OFFSET 7.75947 0.938293 5.60832
                CHANNELS 3 Zrotation Xrotation Yrotation
                JOINT lIndex2
                {
                  OFFSET 2.54057 -0.884171 1.56538
                  CHANNELS 3 Zrotation Xrotation Yrotation
                  End Site
                  {
                    OFFSET 1.62519 -0.234802 1.16502
                  }
                }
              }
              JOINT lMid1
              {
                OFFSET 8.24714 1.18213 3.41376
                CHANNELS 3 Zrotation Xrotation Yrotation
                JOINT lMid2
                {
                  OFFSET 3.10165 -0.590103 1.0647
                  CHANNELS 3 Zrotation Xrotation Yrotation
                  End Site
                  {
                    OFFSET 2.48547 -0.328903 0.83742
                  }
                }
              }
              JOINT lRing1
              {
                OFFSET 8.82822 0.546677 1.51678
                CHANNELS 3 Zrotation Xrotation Yrotation
                JOINT lRing2
                {
                  OFFSET 2.60934 -0.819778 -0.0198488
                  CHANNELS 3 Zrotation Xrotation Yrotation
                  End Site
                  {
                    OFFSET 2.33842 -0.294052 0.168128
                  }
                }
              }
              JOINT lPinky1
              {
                OFFSET 8.27202 -0.0477905 -0.4584
                CHANNELS 3 Zrotation Xrotation Yrotation
                JOINT lPinky2
                {
                  OFFSET 1.82734 -0.647385 -0.700984
                  CHANNELS 3 Zrotation Xrotation Yrotation
                  End Site
                  {
                    OFFSET 1.69225 -0.51767 -0.607171
                  }
                }
              }
            }
          }
        }
      }
    }
  }
  JOINT rButtock
  {
    OFFSET -8.77824 4.35084 1.2192
    CHANNELS 3 Zrotation Xrotation Yrotation
    JOINT rThigh
    {
      OFFSET 0 -1.70687 -2.19456
      CHANNELS 3 Zrotation Xrotation Yrotation
      JOINT rShin
      {
        OFFSET 0 -36.8199 0.73152
        CHANNELS 3 Zrotation Xrotation Yrotation
        JOINT rFoot
        {
          OFFSET 0.73152 -45.1104 -5.12064
          CHANNELS 3 Zrotation Xrotation Yrotation
          End Site
          {
            OFFSET -1.1221 -3.69964 12.103
          }
        }
      }
    }
  }
  JOINT lButtock
  {
    OFFSET 8.77824 4.35084 1.2192
    CHANNELS 3 Zrotation Xrotation Yrotation
    JOINT lThigh
    {
      OFFSET 0 -1.70687 -2.19456
      CHANNELS 3 Zrotation Xrotation Yrotation
      JOINT lShin
      {
        OFFSET 0 -36.8199 0.73152
        CHANNELS 3 Zrotation Xrotation Yrotation
        JOINT lFoot
        {
          OFFSET -0.73152 -45.1104 -5.12064
          CHANNELS 3 Zrotation Xrotation Yrotation
          End Site
          {
            OFFSET 1.1221 -3.69964 12.103
          }
        }
      }
    }
  }
}
MOTION
Frames:	4
Frame Time:	0.03333
0.11688339738940058 36.953543221249234 -15.602786456265806 152.11199951171875 81.0619125366211 166.32598876953125 1.257569670677185 19.15159797668457 9.36967945098877 -3.81943941116333 -13.268898963928223 2.33851957321167 1.2440298795700073 12.781099319458008 12.681600570678711 -5.224510669708252 -26.412799835205078 24.006196975708008 -0.0 0.0 -0.0 -0.0 0.0 -0.0 1.908332704098764e-13 4.07110976874403e-13 -4.452776309563783e-14 18.562896728515625 54.36279296875 28.83629608154297 -28.058900833129883 -40.09339904785156 84.08839416503906 -0.1687629669904709 11.612900733947754 1.6551300287246704 1.683963635201735e-09 -5.160513349977691e-09 -2.6261266494742586e-09 2.893910222567797e-09 -8.876011925451621e-09 -4.54889903522826e-09 1.6839764027665183e-09 -5.1605004713906055e-09 -2.6261393060167393e-09 7.7309088706970215 5.474880218505859 0.41731396317481995 1.6839764027665183e-09 -5.1605004713906055e-09 -2.6261266494742586e-09 2.9055399894714355 0.9651829600334167 0.10290198773145676 1.6839764027665183e-09 -5.1605004713906055e-09 -2.6261266494742586e-09 10.27859878540039 0.73180091381073 0.025912299752235413 1.683963635201735e-09 -5.1605004713906055e-09 -2.6261202101807157e-09 2.2216696739196777 -0.7334870100021362 -0.2089199721813202 1.908332704098764e-13 4.07110976874403e-13 -4.452776309563783e-14 -55.15929412841797 18.363100051879883 -23.098899841308594 26.77619743347168 -44.58720016479492 -92.6231918334961 2.1303598880767822 -37.69159698486328 6.234379768371582 1.8600010420755098e-09 -3.682064375620797e-10 1.1458710647005432e-09 3.192818676112097e-09 -6.118750506267645e-10 2.010180466527345e-09 1.8599882745107266e-09 -3.682064375620797e-10 1.145877503994086e-09 -7.7309088706970215 5.474880218505859 -0.41731396317481995 1.8600010420755098e-09 -3.682064375620797e-10 1.145877503994086e-09 -2.9055399894714355 0.9651829600334167 -0.10290198773145676 1.8599882745107266e-09 -3.682064375620797e-10 1.145877503994086e-09 -10.27859878540039 0.73180091381073 -0.025912299752235413 1.8600010420755098e-09 -3.682064375620797e-10 1.145877503994086e-09 -2.2216696739196777 -0.7334870100021362 0.2089199721813202 -0.0 0.0 -0.0 -42.840694427490234 -59.56660079956055 -40.510498046875 -146.92799377441406 88.02542114257812 147.5679931640625 -2.692739725112915 -9.199639320373535 -8.391508102416992 -0.0 0.0 -0.0 5.352699279785156 -57.67500305175781 14.520598411560059 1.8549302816390991 69.4447021484375 -2.592480182647705 3.0319197177886963 -19.77229881286621 6.6183295249938965
0.38095964159983825 37.71122293606792 -17.044921242080466 137.4600067138672 80.29940795898438 151.25100708007812 0.2331278920173645 19.109498977661133 9.163729667663574 -4.465280055999756 -12.837499618530273 2.2019197940826416 1.1663600206375122 12.786999702453613 12.687499046325684 -5.6442484855651855 -26.251998901367188 23.942001342773438 -0.0 0.0 -0.0 -0.0 0.0 -0.0 2.289999244918517e-13 4.961664759606244e-13 -5.0888872109300376e-14 20.232698440551758 54.51119613647461 26.32619857788086 -28.07360076904297 -40.006900787353516 83.93408966064453 -0.1630440354347229 11.43280029296875 1.6286700963974 2.932204035133168e-09 -9.194016215019474e-09 -4.3602286226018805e-09 5.0408099916410265e-09 -1.5823296450889757e-08 -7.555756909027878e-09 2.932204035133168e-09 -9.194003780521598e-09 -4.360247718437904e-09 7.7309088706970215 5.474880218505859 0.41731396317481995 2.932204035133168e-09 -9.194003780521598e-09 -4.360241057099756e-09 2.9055399894714355 0.9651829600334167 0.10290198773145676 2.932204035133168e-09 -9.194016215019474e-09 -4.3602286226018805e-09 10.27859878540039 0.73180091381073 0.025912299752235413 2.9321913785906872e-09 -9.194003780521598e-09 -4.360221961263733e-09 2.2216696739196777 -0.7334870100021362 -0.2089199721813202 2.289999244918517e-13 4.834442850383536e-13 -5.0888872109300376e-14 -55.776302337646484 19.03219985961914 -20.81960105895996 26.690095901489258 -44.79719924926758 -93.04659271240234 1.9298896789550781 -36.189697265625 5.9016594886779785 3.327445208256563e-09 -3.9055936262855084e-10 2.3855495356883694e-09 5.698065130843588e-09 -6.240247762967499e-10 4.182390878071374e-09 3.3274325517140824e-09 -3.9055936262855084e-10 2.38556219223085e-09 -7.7309088706970215 5.474880218505859 -0.41731396317481995 3.327445208256563e-09 -3.9055936262855084e-10 2.3855495356883694e-09 -2.9055399894714355 0.9651829600334167 -0.10290198773145676 3.3274325517140824e-09 -3.9055936262855084e-10 2.38556219223085e-09 -10.27859878540039 0.73180091381073 -0.025912299752235413 3.327445208256563e-09 -3.9055936262855084e-10 2.38556219223085e-09 -2.2216696739196777 -0.7334870100021362 0.2089199721813202 -0.0 0.0 -0.0 -44.06489944458008 -59.91899871826172 -46.321998596191406 -163.54598999023438 86.00692749023438 164.052001953125 -2.1215600967407227 -10.403100967407227 -5.642270088195801 -0.0 0.0 -0.0 0.7616221308708191 -55.79349899291992 14.106398582458496 1.7845698595046997 68.43109130859375 -2.3411896228790283 1.2677801847457886 -17.668901443481445 1.880829930305481
0.6240083480375983 38.55341258148717 -18.320325347283003 126.90298461914062 78.62529754638672 140.12298583984375 -0.8750289082527161 19.324199676513672 8.87012004852295 -4.939909934997559 -12.53219985961914 2.0541696548461914 1.0807801485061646 12.752399444580078 12.542098999023438 -6.0521697998046875 -26.366899490356445 23.586700439453125 -0.0 0.0 -0.0 -0.0 0.0 -0.0 -1.0177774421860075e-13 -6.233887104439839e-13 -3.1805545068312735e-14 22.253597259521484 54.414005279541016 23.15789794921875 -28.074298858642578 -40.001399993896484 83.92509460449219 -0.13580596446990967 10.480999946594238 1.4896697998046875 4.350998450419752e-10 -1.1437146785198138e-09 -2.9365423981353445e-10 7.487406805672947e-10 -1.9622112823469706e-09 -5.086978616120064e-10 4.3508713298834323e-10 -1.1437146785198138e-09 -2.936733078939824e-10 7.7309088706970215 5.474880218505859 0.41731396317481995 4.350998450419752e-10 -1.1437146785198138e-09 -2.936605958403504e-10 2.9055399894714355 0.9651829600334167 0.10290198773145676 4.3511258485118276e-10 -1.1437146785198138e-09 -2.936605958403504e-10 10.27859878540039 0.73180091381073 0.025912299752235413 4.3508713298834323e-10 -1.1437146785198138e-09 -2.9365423981353445e-10 2.2216696739196777 -0.7334870100021362 -0.2089199721813202 -1.0177774421860075e-13 -6.233887104439839e-13 -3.1805545068312735e-14 -56.598594665527344 19.728498458862305 -18.802196502685547 26.697898864746094 -44.76199722290039 -92.99839782714844 1.6647299528121948 -34.04249954223633 5.445819854736328 1.3808313381602488e-09 1.9990421817883686e-10 1.3374676921529272e-09 2.3488013756178816e-09 3.7599243163377594e-10 2.3436805829391005e-09 1.3808186816177681e-09 1.9990421817883686e-10 1.3374804597177103e-09 -7.7309088706970215 5.474880218505859 -0.41731396317481995 1.3808313381602488e-09 1.9990421817883686e-10 1.3374676921529272e-09 -2.9055399894714355 0.9651829600334167 -0.10290198773145676 1.3808313381602488e-09 1.9990421817883686e-10 1.3374804597177103e-09 -10.27859878540039 0.73180091381073 -0.025912299752235413 1.3808313381602488e-09 1.9990421817883686e-10 1.3374804597177103e-09 -2.2216696739196777 -0.7334870100021362 0.2089199721813202 -0.0 0.0 -0.0 -43.8594970703125 -59.0275993347168 -49.90289306640625 -161.16099548339844 86.48442077636719 161.4759979248047 0.03445999324321747 -9.787610054016113 1.4570300579071045 -0.0 0.0 -0.0 -1.4313889741897583 -54.75579833984375 15.990399360656738 1.905229926109314 68.86829376220703 -2.2911198139190674 -1.0616997480392456 -10.717100143432617 -7.281419277191162
0.889631576734191 39.321576636681826 -19.44103079042663 120.6400146484375 76.02760314941406 133.3509979248047 -2.141780138015747 19.810400009155273 8.498019218444824 -5.191870212554932 -12.251500129699707 1.890260100364685 0.9164882898330688 12.678499221801758 12.318498611450195 -6.437739849090576 -26.529300689697266 23.092498779296875 -0.0 0.0 -0.0 -0.0 0.0 -0.0 -3.5622210476510263e-13 -1.4121661739280311e-12 -3.816665408197528e-14 24.42369842529297 54.10459518432617 19.716596603393555 -28.064800262451172 -40.057899475097656 84.025390625 -0.10732599347829819 9.302549362182617 1.319119930267334 -2.0662280775241015e-09 6.973314814473497e-09 3.437530482486295e-09 -3.5507965456815782e-09 1.2014404582316729e-08 5.958698867658541e-09 -2.0662280775241015e-09 6.973314814473497e-09 3.4375116086948765e-09 7.7309088706970215 5.474880218505859 0.41731396317481995 -2.0662280775241015e-09 6.973301935886411e-09 3.4375116086948765e-09 2.9055399894714355 0.9651829600334167 0.10290198773145676 -2.066215420981621e-09 6.973301935886411e-09 3.4375178259438144e-09 10.27859878540039 0.73180091381073 0.025912299752235413 -2.0662280775241015e-09 6.973301935886411e-09 3.4375116086948765e-09 2.2216696739196777 -0.7334870100021362 -0.2089199721813202 -3.5622210476510263e-13 -1.4121661739280311e-12 -3.816665408197528e-14 -57.43219757080078 20.099199295043945 -17.039199829101562 26.82849884033203 -44.45949935913086 -92.3626937866211 1.4407999515533447 -31.95439910888672 5.029239177703857 -4.515369744773068e-10 7.23207216335453e-10 4.029762634694123e-10 -8.015887953405354e-10 1.2608100119493315e-09 7.003008728467819e-10 -4.515369744773068e-10 7.23219928389085e-10 4.030016875766762e-10 -7.7309088706970215 5.474880218505859 -0.41731396317481995 -4.515369744773068e-10 7.23207216335453e-10 4.029762634694123e-10 -2.9055399894714355 0.9651829600334167 -0.10290198773145676 -4.515369744773068e-10 7.23207216335453e-10 4.0298897552304425e-10 -10.27859878540039 0.73180091381073 -0.025912299752235413 -4.515369744773068e-10 7.23219928389085e-10 4.0298261949622827e-10 -2.2216696739196777 -0.7334870100021362 0.2089199721813202 -0.0 0.0 -0.0 -41.72639465332031 -57.58400344848633 -49.963096618652344 -121.76599884033203 88.69598388671875 121.9469985961914 1.7536998987197876 -7.432469844818115 8.358590126037598 -0.0 0.0 -0.0 -2.2413387298583984 -54.30569839477539 18.149999618530273 2.2118897438049316 70.76899719238281 -2.4885199069976807 -1.1361298561096191 -3.793949604034424 -15.08759880065918
